<?xml version="1.0" standalone="no"?>
<!DOCTYPE svg PUBLIC "-//W3C//DTD SVG 20010904//EN"
 "http://www.w3.org/TR/2001/REC-SVG-20010904/DTD/svg10.dtd">
<svg version="1.0" xmlns="http://www.w3.org/2000/svg"
 width="484.000000pt" height="474.000000pt" viewBox="0 0 484.000000 474.000000"
 preserveAspectRatio="xMidYMid meet">

<g transform="translate(0.000000,474.000000) scale(0.100000,-0.100000)"
fill="#000000" stroke="none">
<path d="M2352 4733 c37 -2 100 -2 140 0 40 1 10 3 -67 3 -77 0 -110 -1 -73
-3z"/>
<path d="M2183 4723 c9 -2 25 -2 35 0 9 3 1 5 -18 5 -19 0 -27 -2 -17 -5z"/>
<path d="M2646 4721 c163 -19 181 -21 144 -11 -19 5 -75 11 -125 14 -86 5 -87
5 -19 -3z"/>
<path d="M2108 4713 c7 -3 16 -2 19 1 4 3 -2 6 -13 5 -11 0 -14 -3 -6 -6z"/>
<path d="M2028 4703 c7 -3 16 -2 19 1 4 3 -2 6 -13 5 -11 0 -14 -3 -6 -6z"/>
<path d="M2843 4693 c9 -2 23 -2 30 0 6 3 -1 5 -18 5 -16 0 -22 -2 -12 -5z"/>
<path d="M2898 4683 c6 -2 18 -2 25 0 6 3 1 5 -13 5 -14 0 -19 -2 -12 -5z"/>
<path d="M2958 4673 c7 -3 16 -2 19 1 4 3 -2 6 -13 5 -11 0 -14 -3 -6 -6z"/>
<path d="M2998 4663 c7 -3 16 -2 19 1 4 3 -2 6 -13 5 -11 0 -14 -3 -6 -6z"/>
<path d="M3038 4653 c7 -3 16 -2 19 1 4 3 -2 6 -13 5 -11 0 -14 -3 -6 -6z"/>
<path d="M3078 4643 c7 -3 16 -2 19 1 4 3 -2 6 -13 5 -11 0 -14 -3 -6 -6z"/>
<path d="M2240 4379 c-271 -21 -534 -96 -796 -227 -394 -198 -688 -491 -884
-883 -93 -185 -146 -341 -192 -569 -20 -102 -23 -143 -23 -355 1 -223 3 -249
28 -370 127 -595 519 -1108 1055 -1379 187 -94 468 -181 692 -212 145 -20 399
-20 542 0 391 56 785 227 1098 476 98 79 268 248 336 335 158 203 297 480 358
716 75 289 76 630 4 944 -57 248 -195 534 -355 736 -361 453 -923 744 -1528
789 -154 11 -181 11 -335 -1z m390 -584 c551 -84 966 -434 1144 -966 55 -168
70 -273 63 -473 -4 -138 -10 -191 -31 -275 -123 -488 -472 -870 -940 -1026
-151 -51 -235 -66 -396 -72 -337 -13 -655 83 -922 277 -89 65 -236 212 -305
306 -199 271 -305 659 -264 969 86 650 554 1145 1186 1254 135 24 334 26 465
6z"/>
<path d="M2275 3439 c-273 -54 -481 -213 -599 -458 -78 -162 -87 -343 -27
-520 57 -171 145 -283 301 -391 49 -33 94 -69 100 -80 28 -53 -7 -103 -88
-126 -31 -9 -61 -19 -65 -21 -5 -3 26 -24 70 -48 43 -23 120 -67 172 -99 51
-31 95 -55 98 -52 3 2 13 40 24 83 11 43 24 89 30 103 l10 26 162 -1 c192 0
277 18 417 90 155 81 269 199 346 360 56 117 74 186 81 316 7 134 -12 230 -72
354 -102 212 -310 378 -560 447 -82 23 -320 33 -400 17z m302 -115 c123 -25
333 -125 333 -157 0 -7 -29 -34 -64 -60 l-65 -48 -68 35 c-171 87 -319 105
-425 53 -60 -30 -101 -70 -96 -96 2 -11 66 -34 210 -76 114 -34 238 -74 277
-89 189 -74 278 -201 269 -382 -4 -70 -10 -94 -41 -157 -65 -132 -215 -245
-365 -276 -227 -47 -473 80 -589 304 -124 240 -117 517 19 720 57 86 104 130
191 176 127 68 261 85 414 53z"/>
<path d="M2114 2835 c-24 -36 -13 -93 25 -127 22 -19 88 -46 238 -94 114 -36
229 -77 255 -90 85 -43 128 -24 128 55 0 79 -44 104 -361 200 -92 28 -183 58
-203 66 -49 21 -63 19 -82 -10z"/>
<path d="M2187 2486 c-9 -24 11 -88 40 -130 78 -111 276 -125 305 -20 12 44
-21 66 -181 118 -156 51 -157 51 -164 32z"/>
<path d="M4605 1372 c-158 -307 -412 -623 -665 -824 -216 -172 -504 -336 -708
-403 -29 -9 -51 -19 -49 -21 10 -10 192 63 332 131 476 235 853 610 1087 1083
39 78 69 144 67 147 -2 2 -31 -49 -64 -113z"/>
<path d="M2968 63 c7 -3 16 -2 19 1 4 3 -2 6 -13 5 -11 0 -14 -3 -6 -6z"/>
<path d="M2878 43 c7 -3 16 -2 19 1 4 3 -2 6 -13 5 -11 0 -14 -3 -6 -6z"/>
</g>
</svg>
